PathFileType	4	(X/Y/Z)	c:/Users/goper/Files/vsCode/490R/osim_files/C05/C05_Fast_01.trc
DataRate	CameraRate	NumFrames	NumMarkers	Units                	OrigDataRate	OrigDataStartFrame	OrigNumFrames
250.00	250.00	6	36	mm	250.0	3097	4128
                Frame#	Time	LPSIS			LASIS			LTH1			LTH2			LTH3			LTH4			LLFE			LMFE			LSH1			LSH2			LSH3			LSH4			LLMAL			LMMAL			LCAL			LMTP5			LTOE			LMTP1			RPSIS			RASIS			RTH1			RTH2			RTH3			RTH4			RLFE			RMFE			RSH1			RSH2			RSH3			RSH4			RLMAL			RMMAL			RCAL			RMTP1			RTOE			RMTP5		
		X1	Y1	Z1	X2	Y2	Z2	X3	Y3	Z3	X4	Y4	Z4	X5	Y5	Z5	X6	Y6	Z6	X7	Y7	Z7	X8	Y8	Z8	X9	Y9	Z9	X10	Y10	Z10	X11	Y11	Z11	X12	Y12	Z12	X13	Y13	Z13	X14	Y14	Z14	X15	Y15	Z15	X16	Y16	Z16	X17	Y17	Z17	X18	Y18	Z18	X19	Y19	Z19	X20	Y20	Z20	X21	Y21	Z21	X22	Y22	Z22	X23	Y23	Z23	X24	Y24	Z24	X25	Y25	Z25	X26	Y26	Z26	X27	Y27	Z27	X28	Y28	Z28	X29	Y29	Z29	X30	Y30	Z30	X31	Y31	Z31	X32	Y32	Z32	X33	Y33	Z33	X34	Y34	Z34	X35	Y35	Z35	X36	Y36	Z36

3097	12.38400	-2455.70654	1021.27203	321.89676	-2652.90723	976.70239	392.13391	-2486.23364	665.23468	420.35226	-2488.69312	602.00287	411.87543	-2561.18701	660.17993	424.05823	-2553.58228	599.65521	414.56363	-2509.45728	495.00684	401.84418	-2519.45776	482.34903	284.61005	-2325.73730	431.36453	405.67230	-2296.61914	399.98029	402.70529	-2366.83179	383.16553	420.52997	-2330.52759	359.49838	414.55203	-2143.58667	231.16721	384.94073	-2173.64429	214.78461	302.82965	-2091.02808	267.26099	330.96796	-2158.15430	78.78616	402.96548	-2196.30249	72.45211	341.37674	-2181.64893	71.92545	293.73431	-2465.49414	1032.45740	213.87477	-2662.33472	1003.26111	163.61401	-2679.15161	670.34045	103.25002	0.00000	0.00000	0.00000	-2746.24121	708.60870	112.18414	-2769.87793	652.41833	125.12755	0.00000	0.00000	0.00000	-2781.36987	554.28284	145.29268	-2730.83057	383.45285	117.98268	-2740.75317	337.08783	123.66159	-2791.55493	390.09302	130.77921	-2791.95435	343.36053	135.62430	-2772.34570	106.28307	169.37613	-2796.12378	120.92909	253.63528	-2713.01611	79.00833	222.65121	-2930.92603	60.56096	240.10257	-2947.37793	88.40871	191.45615	-2898.80078	50.97437	131.95222
3098	12.38800	-2461.35889	1021.22101	321.53561	-2658.17163	976.77393	391.43564	-2494.75659	663.92737	419.41693	-2498.13745	600.69983	411.13068	-2570.02930	659.80334	423.63449	-2563.67236	599.17035	415.18436	-2520.37964	494.11581	401.54581	-2531.05640	481.32767	284.18481	-2336.94458	432.53738	405.43774	-2307.25830	401.42633	402.36978	-2377.33740	383.89545	420.35794	-2340.83936	360.61121	414.29184	-2152.93970	235.44986	384.88116	-2182.51636	218.00636	302.58923	-2101.60156	273.11209	331.15469	-2162.67261	82.22193	402.85297	-2201.07080	73.57140	341.56259	-2185.56372	74.10782	293.90817	-2471.17188	1032.87244	213.51826	-2668.11157	1004.03485	162.92557	-2683.15088	670.12866	102.83489	0.00000	0.00000	0.00000	-2750.34570	708.21649	111.23372	-2773.67358	651.72241	124.23190	0.00000	0.00000	0.00000	-2785.78882	553.97528	145.10941	-2734.61621	383.63171	117.90602	-2744.12891	337.22672	123.71966	-2795.09473	389.75183	130.93127	-2795.15723	343.03430	135.87239	-2773.05981	106.34061	169.62140	-2796.57446	121.26299	253.92854	-2713.20142	79.11394	222.71632	-2931.29199	59.51836	240.50330	-2947.95264	87.32443	191.97765	-2899.18604	50.68802	132.12120
3099	12.39200	-2466.96118	1021.19482	321.13757	-2662.00195	976.24811	390.65799	-2503.64014	662.80664	418.73196	-2507.61035	599.60114	410.49844	-2578.84351	659.65668	423.15002	-2573.21606	598.79266	414.75650	-2531.39355	493.34268	401.28439	-2542.54248	480.47330	283.75571	-2348.31934	433.61725	405.11490	-2318.18262	402.89407	401.95013	-2387.96289	384.53833	420.10574	-2351.18823	361.72458	413.95941	-2162.75610	239.03792	384.52609	-2190.17090	221.86952	302.31711	-2112.67993	278.65741	331.47400	-2167.48511	85.45124	403.07056	-2206.37109	74.31329	341.74939	-2189.83057	76.24725	294.15274	-2476.86353	1033.29602	213.11162	-2674.04688	1004.81482	162.21880	-2686.82788	669.75012	102.66331	0.00000	0.00000	0.00000	-2754.40601	707.55847	110.39989	-2777.31738	650.83380	123.44543	0.00000	0.00000	0.00000	-2788.99072	553.37463	144.60446	-2738.26538	383.78696	118.00409	-2747.18042	337.31857	123.90936	-2798.60889	389.48337	131.16782	-2798.14966	342.68436	136.18192	-2773.62573	106.39118	169.89659	-2797.09326	120.75447	253.97105	-2713.54761	79.18522	222.70612	-2931.68262	58.60904	240.74794	-2948.53052	86.31675	192.42220	-2899.52954	50.45498	132.26796
3100	12.39600	-2472.55859	1021.10895	320.72601	-2668.67822	977.19366	390.17859	-2512.32959	661.75708	419.05334	-2517.18701	598.62610	409.76172	-2587.82617	659.54443	422.74075	-2582.78076	598.50500	414.38531	-2542.43433	492.74002	400.95670	-2554.30786	479.86371	283.27951	-2359.72974	434.68271	404.76361	-2329.37402	404.31653	401.68790	-2398.89331	385.22610	419.77567	-2361.68311	362.61493	413.47266	-2172.70044	242.75528	384.35654	-2199.53418	224.92459	302.03821	-2123.95483	283.93890	331.46936	-2172.73877	88.78253	402.86349	-2211.77734	74.42905	342.05145	-2194.38110	78.28950	294.43039	-2482.33374	1033.64893	212.62724	-2679.73755	1005.47974	161.59752	-2690.50439	669.26849	102.69389	0.00000	0.00000	0.00000	-2758.35986	706.84021	109.75693	-2780.84546	649.87549	122.81387	0.00000	0.00000	0.00000	-2793.03101	552.74677	144.50809	-2741.34375	383.90759	118.27715	-2749.99243	336.94003	124.10425	-2801.66968	389.02188	131.43385	-2800.93091	342.30954	136.50739	-2774.25879	106.45381	170.19392	-2797.54907	120.58706	254.31975	-2713.54150	79.29898	222.79173	-2932.05981	57.72218	241.06659	-2949.02734	85.37018	192.83960	-2899.76367	50.30368	132.35963
3101	12.40000	-2478.01685	1021.10693	320.23648	-2673.90576	977.48206	389.61755	-2521.36279	660.84180	417.13275	-2526.76392	597.68683	409.13669	-2596.66553	659.43787	422.26901	-2592.35913	598.39093	414.02838	-2553.51440	492.19070	400.64624	-2565.85474	479.36441	282.76773	-2371.32324	435.67102	404.40491	-2340.37744	405.49405	401.20618	-2409.92725	385.80692	419.41782	-2372.36719	363.50381	413.00473	-2182.81323	246.24762	384.10275	-2209.12207	227.77635	301.79779	-2135.35132	288.93301	331.11334	-2178.35034	91.91418	402.61624	-2217.57202	73.96366	342.25601	-2199.05786	80.31976	294.91058	-2487.93188	1034.04016	212.09433	-2685.55396	1006.22485	160.96773	-2693.98022	668.80048	102.87401	0.00000	0.00000	0.00000	-2762.22168	706.04669	109.22475	-2784.21240	648.89990	122.30573	0.00000	0.00000	0.00000	-2797.02588	552.07019	144.50618	-2744.27808	383.98541	118.77124	-2752.95850	337.58865	124.33463	-2804.61108	388.65518	131.73265	-2803.44751	341.94003	136.82997	-2774.71045	106.48769	170.47429	-2797.93359	120.59755	254.88773	-2713.64990	79.33664	222.87700	-2932.22876	57.06019	241.34061	-2949.41333	84.56220	193.16750	-2899.93188	50.19040	132.39931
3102	12.40400	-2483.42578	1021.05939	319.66943	-2678.10742	977.31342	388.93991	-2529.98389	659.98218	417.32449	-2536.36401	597.03790	408.51337	-2605.56689	659.43542	421.86996	-2602.10864	598.44287	413.72641	-2564.60571	491.76947	400.29111	-2577.41602	479.09564	282.22702	-2383.00049	436.56842	404.06766	-2351.89282	406.71783	400.94318	-2421.04492	386.42249	419.02789	-2383.65186	364.56046	412.86075	-2192.83911	249.51584	383.90341	-2218.66602	230.36981	301.50845	-2146.44165	293.36771	330.72888	-2184.41699	95.05580	402.47885	-2223.61401	73.69263	342.44147	-2203.93921	81.98920	295.67419	-2493.15723	1034.42212	211.52165	-2691.17358	1006.85504	160.41531	-2697.51831	668.24310	103.15295	0.00000	0.00000	0.00000	-2766.00537	705.29266	108.83562	-2787.60522	647.88519	121.89175	0.00000	0.00000	0.00000	-2800.84570	551.42810	144.51593	-2747.78882	383.61188	120.05225	-2754.64673	337.48996	124.48680	-2807.27856	388.34329	131.98381	-2805.75781	341.62372	137.10757	-2775.04150	106.56197	170.75537	-2798.14282	120.36311	255.17429	-2713.79028	79.36183	222.94147	-2932.41626	56.50831	241.47833	-2950.08618	84.22980	193.62834	-2900.03589	50.10537	132.42700
